<?xml version="1.0" encoding="UTF-8"?>
<svg xmlns="http://www.w3.org/2000/svg" viewBox="0 0 512 512">
  <rect width="512" height="512" rx="96" fill="#0C1B33"/>
  <g transform="translate(90, 175) scale(3.6)">
    <path fill="#FAFAF8" d="M26.5,4.67c-.08-.14-.2-.34-.35-.62-.89-1.62-1.57-2.69-2.05-3.24s-1.1-.82-1.85-.82h-.12c-.35,0-.68.08-.99.23-.3.15-.57.3-.78.47-.22.17-.49.5-.79,1.01-.32.5-.56.91-.74,1.24s-.49.9-.94,1.73c-.39.81-1.34,2.79-2.83,5.94l-3.52,7.33c-4.45,9.28-7.4,15.4-8.83,18.35-1.7,3.49-2.59,5.59-2.69,6.32v.03l.15.83.03.15v-.09l.03.09c.67,1.6,1.72,2.39,3.13,2.39.91,0,1.73-.39,2.48-1.15l.09-.09s-.04.06-.06.12c.64-1.1,2.4-4.64,5.28-10.57l4.38-9.12c.03-.07.06-.15.07-.2l.5-1.03c.27-.57.52-1.1.74-1.6l1.13-2.31c.42-.89,1.22-2.55,2.41-5.01,1.19-2.45,1.83-3.76,1.91-3.92l12.44,26.06c2.19,4.51,3.45,7.03,3.78,7.57l.09.09c.75.77,1.58,1.15,2.48,1.15,1.34,0,2.38-.79,3.13-2.39l.03-.09v.09l.03-.15.15-.83c-.1-.77-.99-2.88-2.69-6.32-.79-1.55-5.85-12.11-15.19-31.65h-.01Z"/>
    <circle cx="67.12" cy="23" r="20" fill="none" stroke="#D4804A" stroke-width="5.5"/>
  </g>
</svg>